<?xml version="1.0" encoding="utf-8"?>
<!-- Generator: Adobe Illustrator 17.0.0, SVG Export Plug-In . SVG Version: 6.00 Build 0)  -->
<!DOCTYPE svg PUBLIC "-//W3C//DTD SVG 1.1//EN" "http://www.w3.org/Graphics/SVG/1.1/DTD/svg11.dtd">
<svg version="1.1" id="Layer_1" xmlns="http://www.w3.org/2000/svg" xmlns:xlink="http://www.w3.org/1999/xlink" x="0px" y="0px"
	 width="210.13px" height="210.13px" viewBox="0 0 210.13 210.13" enable-background="new 0 0 210.13 210.13" xml:space="preserve">
<g>
	<circle fill="#404E69" cx="105.065" cy="105.065" r="105.065"/>
	<g>
		<path fill="#FFFFFF" d="M57.572,120.221c0,2.577-0.48,4.839-1.44,6.784c-0.961,1.946-2.262,3.569-3.904,4.871
			c-1.643,1.301-3.563,2.28-5.761,2.937c-2.198,0.657-4.548,0.985-7.05,0.985c-1.693,0-3.266-0.139-4.719-0.417
			c-1.453-0.278-2.735-0.613-3.847-1.004c-1.112-0.392-2.04-0.802-2.785-1.232c-0.746-0.429-1.283-0.808-1.611-1.137
			c-0.329-0.328-0.562-0.802-0.701-1.421c-0.139-0.619-0.208-1.51-0.208-2.672c0-0.783,0.025-1.44,0.076-1.971
			c0.05-0.531,0.132-0.96,0.247-1.289c0.113-0.328,0.265-0.562,0.455-0.701c0.189-0.139,0.41-0.208,0.663-0.208
			c0.354,0,0.853,0.208,1.497,0.626c0.645,0.416,1.472,0.878,2.483,1.383c1.01,0.506,2.217,0.967,3.62,1.383
			c1.402,0.418,3.025,0.626,4.87,0.626c1.213,0,2.299-0.145,3.26-0.436c0.96-0.291,1.775-0.701,2.444-1.232
			c0.67-0.531,1.181-1.187,1.535-1.971c0.354-0.783,0.531-1.655,0.531-2.615c0-1.112-0.303-2.065-0.91-2.862
			c-0.606-0.795-1.396-1.503-2.369-2.122c-0.972-0.619-2.078-1.2-3.316-1.743c-1.238-0.543-2.515-1.118-3.828-1.724
			c-1.314-0.606-2.59-1.295-3.828-2.066c-1.238-0.77-2.344-1.693-3.316-2.766c-0.973-1.074-1.763-2.344-2.369-3.809
			c-0.606-1.465-0.91-3.222-0.91-5.268c0-2.35,0.436-4.415,1.308-6.197c0.871-1.781,2.047-3.26,3.524-4.434
			c1.479-1.176,3.222-2.053,5.23-2.634c2.009-0.581,4.137-0.872,6.387-0.872c1.162,0,2.324,0.089,3.487,0.265
			c1.162,0.177,2.249,0.417,3.26,0.72c1.01,0.303,1.908,0.644,2.691,1.023c0.783,0.379,1.301,0.695,1.554,0.948
			c0.252,0.253,0.423,0.468,0.511,0.644c0.089,0.177,0.165,0.411,0.227,0.701c0.063,0.291,0.107,0.657,0.133,1.1
			c0.025,0.442,0.038,0.992,0.038,1.648c0,0.733-0.019,1.352-0.057,1.857c-0.039,0.506-0.101,0.923-0.19,1.251
			c-0.088,0.329-0.214,0.569-0.379,0.72c-0.164,0.152-0.385,0.227-0.663,0.227c-0.278,0-0.72-0.176-1.327-0.531
			c-0.606-0.354-1.352-0.739-2.236-1.156c-0.885-0.418-1.908-0.797-3.07-1.137c-1.163-0.342-2.439-0.512-3.828-0.512
			c-1.087,0-2.034,0.133-2.843,0.398c-0.809,0.266-1.484,0.632-2.028,1.1c-0.543,0.467-0.947,1.03-1.213,1.686
			c-0.265,0.657-0.398,1.352-0.398,2.085c0,1.087,0.297,2.027,0.891,2.824c0.593,0.795,1.389,1.503,2.387,2.122
			c0.998,0.619,2.129,1.2,3.392,1.743c1.263,0.543,2.552,1.118,3.866,1.724c1.314,0.606,2.602,1.295,3.866,2.066
			c1.263,0.77,2.388,1.693,3.373,2.766c0.985,1.074,1.781,2.337,2.388,3.79C57.269,116.538,57.572,118.25,57.572,120.221z"/>
		<path fill="#FFFFFF" d="M97.065,89.975c0,0.733-0.032,1.358-0.094,1.876c-0.063,0.518-0.158,0.934-0.285,1.25
			c-0.127,0.316-0.285,0.55-0.473,0.701c-0.19,0.152-0.398,0.227-0.626,0.227h-12.28v39.531c0,0.253-0.082,0.48-0.247,0.682
			c-0.164,0.203-0.436,0.367-0.815,0.493c-0.379,0.127-0.89,0.227-1.535,0.303c-0.644,0.076-1.446,0.114-2.406,0.114
			c-0.961,0-1.763-0.038-2.406-0.114c-0.645-0.076-1.156-0.176-1.535-0.303c-0.379-0.126-0.651-0.29-0.815-0.493
			c-0.165-0.202-0.247-0.429-0.247-0.682V94.031h-12.28c-0.253,0-0.468-0.076-0.644-0.227c-0.177-0.152-0.329-0.385-0.455-0.701
			c-0.127-0.316-0.221-0.733-0.285-1.25c-0.063-0.518-0.094-1.143-0.094-1.876c0-0.758,0.032-1.402,0.094-1.933
			c0.063-0.531,0.158-0.954,0.285-1.269c0.126-0.316,0.278-0.544,0.455-0.682c0.176-0.139,0.391-0.209,0.644-0.209h34.566
			c0.227,0,0.436,0.07,0.626,0.209c0.189,0.139,0.347,0.366,0.473,0.682c0.126,0.316,0.221,0.739,0.285,1.269
			C97.033,88.573,97.065,89.217,97.065,89.975z"/>
		<path fill="#FFFFFF" d="M116.937,133.747c0,0.235-0.076,0.439-0.227,0.616c-0.152,0.175-0.411,0.322-0.777,0.439
			c-0.367,0.118-0.853,0.205-1.46,0.264c-0.606,0.058-1.378,0.088-2.312,0.088c-0.935,0-1.706-0.029-2.312-0.088
			c-0.606-0.059-1.093-0.146-1.46-0.264c-0.366-0.117-0.625-0.264-0.777-0.439c-0.152-0.176-0.227-0.381-0.227-0.616v-31.308
			c0-0.234,0.076-0.439,0.227-0.616c0.152-0.175,0.411-0.328,0.777-0.457c0.367-0.129,0.853-0.229,1.46-0.299
			c0.606-0.07,1.377-0.106,2.312-0.106c0.934,0,1.706,0.035,2.312,0.106c0.606,0.07,1.093,0.17,1.46,0.299
			c0.366,0.129,0.625,0.281,0.777,0.457c0.152,0.176,0.227,0.382,0.227,0.616V133.747z"/>
		<path fill="#FFFFFF" d="M187.359,133.562c0,0.253-0.07,0.48-0.208,0.682c-0.139,0.203-0.393,0.367-0.758,0.493
			c-0.367,0.127-0.854,0.227-1.46,0.303c-0.606,0.076-1.377,0.114-2.311,0.114c-0.91,0-1.668-0.038-2.274-0.114
			c-0.606-0.076-1.086-0.176-1.44-0.303c-0.354-0.126-0.606-0.29-0.758-0.493c-0.152-0.202-0.227-0.429-0.227-0.682v-39.91h-0.076
			l-14.212,39.872c-0.102,0.329-0.266,0.6-0.493,0.815c-0.227,0.215-0.537,0.386-0.928,0.512c-0.393,0.126-0.891,0.209-1.497,0.246
			c-0.606,0.039-1.34,0.057-2.198,0.057s-1.592-0.032-2.198-0.094c-0.606-0.063-1.106-0.165-1.497-0.303
			c-0.391-0.139-0.701-0.309-0.928-0.512c-0.227-0.202-0.379-0.442-0.455-0.72l-13.72-39.872h-0.076v39.91
			c0,0.253-0.07,0.48-0.209,0.682c-0.139,0.203-0.398,0.367-0.777,0.493c-0.379,0.127-0.866,0.227-1.459,0.303
			c-0.594,0.076-1.359,0.114-2.293,0.114c-0.91,0-1.668-0.038-2.274-0.114c-0.606-0.076-1.093-0.176-1.46-0.303
			c-0.366-0.126-0.619-0.29-0.758-0.493c-0.139-0.202-0.208-0.429-0.208-0.682v-43.7c0-1.289,0.341-2.274,1.023-2.956
			c0.682-0.682,1.592-1.023,2.729-1.023h6.519c1.162,0,2.16,0.094,2.995,0.285c0.833,0.189,1.553,0.505,2.16,0.947
			c0.606,0.442,1.112,1.024,1.516,1.743c0.404,0.721,0.758,1.611,1.061,2.672l10.612,29.222h0.152l10.991-29.146
			c0.328-1.061,0.688-1.958,1.08-2.691c0.391-0.733,0.846-1.327,1.364-1.781c0.518-0.455,1.131-0.777,1.839-0.966
			c0.707-0.19,1.528-0.285,2.463-0.285h6.708c0.683,0,1.27,0.089,1.763,0.265c0.492,0.177,0.896,0.436,1.213,0.777
			c0.316,0.34,0.555,0.758,0.72,1.25c0.164,0.493,0.246,1.056,0.246,1.687V133.562z"/>
	</g>
	<g>
		<path fill="#FFFFFF" d="M48.076,62.876c-0.898,0.888-2.114,1.696-3.52,1.69c-0.721-0.003-1.479-0.184-2.153-0.52
			c-0.69-0.319-1.297-0.829-1.746-1.422c-0.881-1.133-1.134-2.564-0.703-4.028c0.133-0.453,0.638-0.702,1.098-0.548
			c0.459,0.154,0.749,0.654,0.599,1.125c-0.266,0.906-0.127,1.771,0.394,2.437c0.558,0.737,1.479,1.186,2.445,1.196
			c0.878-0.01,1.886-0.648,2.85-1.815c0.86-1.03,1.472-2.242,1.602-2.872c0.213-0.855,0.024-1.669-0.498-2.334
			c-0.52-0.63-1.317-1.022-2.214-1.031c-1.493,0.009-2.753,0.289-4.083,0.602c-0.648,0.14-1.312,0.296-2.013,0.416
			c-0.648,0.104-1.298,0.103-1.934-0.056c-0.67-0.125-1.29-0.407-1.842-0.827c-0.818-0.586-1.875-1.759-2.194-3.948
			c-0.158-1.024-0.055-2.164,0.33-3.26c0.334-0.975,0.863-1.891,1.518-2.61c0.948-1.044,2.028-1.576,3.031-1.529
			c0.844,0.06,1.556,0.573,2.134,1.503c0.416,0.698,0.711,1.515,1.024,2.315c0.296,0.852,0.646,1.794,1.022,2.174
			c0.34,0.344,0.35,0.907,0.021,1.231c-0.345,0.342-0.908,0.325-1.248-0.019c-0.662-0.669-1.049-1.718-1.455-2.819
			s-0.94-2.576-1.521-2.611c-0.457-0.013-1.101,0.337-1.67,0.971c-0.844,0.942-1.711,2.657-1.451,4.475
			c0.179,1.218,0.705,2.165,1.47,2.732c0.659,0.494,1.523,0.677,2.381,0.544c0.666-0.122,1.313-0.261,1.926-0.401
			c1.382-0.329,2.8-0.657,4.487-0.643c1.44,0.007,2.752,0.643,3.632,1.74c0.862,1.08,1.185,2.478,0.875,3.857
			c-0.229,0.978-1.029,2.449-1.958,3.582C48.525,62.397,48.301,62.654,48.076,62.876z"/>
		<path fill="#FFFFFF" d="M57.232,47.957c0.259,1.237,0.135,2.57-0.369,3.964c-0.507,1.429-1.211,2.433-2.147,3.007
			c-0.73,0.483-1.348,0.469-1.472,0.466c-0.035-0.005-0.089,0.003-0.139-0.023c0.173,0.474,0.327,0.963,0.496,1.473
			c0.072,0.137,0.109,0.268,0.182,0.404c1.039,2.561,1.526,4.104,1.553,4.179c0.097,0.373-0.019,0.745-0.291,0.949
			c-0.078,0.058-0.171,0.096-0.264,0.134c-0.441,0.14-0.926-0.102-1.118-0.562c-0.634-1.656-1.215-3.161-1.673-4.502
			c-0.964-2.299-2.535-5.733-4.708-9.606c-0.266-0.437-0.115-0.963,0.285-1.199c0.435-0.23,0.981-0.067,1.213,0.363
			c0.411,0.71,0.771,1.394,1.151,2.063c-0.063-1.097,0.064-2.02,0.384-2.768c0.391-0.896,1.092-1.581,2.061-1.988
			c0.523-0.233,1.165-0.268,1.781-0.093c0.566,0.148,1.127,0.491,1.621,0.948C56.506,45.894,57.011,46.852,57.232,47.957z
			 M54.601,46.43c-0.494-0.457-1.071-0.661-1.482-0.48c-0.896,0.384-1.67,1.092-1.417,3.7c0.133,1.109,0.429,2.477,0.916,4.179
			c0.16-0.151,0.361-0.207,0.574-0.207l0.02-0.014c0.054-0.009,0.305-0.038,0.651-0.265c0.369-0.277,0.9-0.865,1.347-2.09
			C56.053,48.935,55.424,47.245,54.601,46.43z"/>
		<path fill="#FFFFFF" d="M61.841,50.354c-0.609,0.353-1.317,0.438-2.018,0.197c-0.701-0.241-1.281-0.759-1.617-1.535
			c-0.57-1.229-0.543-2.832-0.447-3.975c0.138-1.315,0.456-2.705,0.882-3.715c0.722-1.711,2.159-2.866,3.496-2.786
			c0.873,0.054,1.567,0.623,1.896,1.58c0.153,0.411-0.03,0.87-0.4,1.055c0.219-0.009,0.443,0.038,0.65,0.153
			c0.491,0.363,0.633,1.045,0.482,2.338c-0.008,0.181-0.053,0.442-0.123,0.806c0.056,0.291,0.091,0.594,0.155,0.851
			c0.149,0.501,0.251,0.678,0.311,0.732c0.034,0.01,0.118-0.039,0.244-0.112c1.051-0.608,1.483-2.24,1.319-4.997
			c-0.04-0.506,0.346-0.906,0.818-0.915c0.493-0.021,0.899,0.392,0.927,0.875c0.104,1.733-0.029,3.104-0.361,4.178
			c-0.329,1.131-0.958,1.936-1.798,2.422c-0.862,0.499-1.499,0.367-1.9,0.158c-0.14-0.096-0.292-0.213-0.423-0.343
			c-0.441,1.226-1.065,2.38-1.985,2.971L61.841,50.354z M61.554,40.494c-0.441,0.255-0.949,0.784-1.292,1.6
			c-0.676,1.597-1.186,4.743-0.509,6.205c0.208,0.409,0.403,0.502,0.55,0.563c0.249,0.091,0.456,0.06,0.674-0.096
			c0.857-0.555,1.541-2.479,1.895-4.389c-0.013-0.169-0.035-0.303-0.048-0.472l-0.04-0.359c-0.057-0.438-0.08-0.865-0.039-1.183
			c0.057-0.533,0.228-0.867,0.543-1.049l0.063-0.037c-0.392,0.05-0.818-0.203-0.972-0.614c-0.103-0.323-0.225-0.34-0.301-0.326
			C61.937,40.331,61.765,40.372,61.554,40.494z"/>
		<path fill="#FFFFFF" d="M68.024,45.558c-0.112,0.048-0.233,0.072-0.375,0.049c-0.438-0.035-0.795-0.38-0.831-0.836
			c0.002-0.056-0.345-4.472-0.996-6.436c-0.145-0.464,0.086-0.977,0.553-1.12c0.444-0.134,0.949,0.122,1.104,0.609
			c0.145,0.464,0.284,1.041,0.412,1.65c0.208-0.752,0.433-1.401,0.676-1.947c0.583-1.299,1.252-2.082,2.102-2.443
			c0.939-0.399,1.729-0.403,2.358,0.021c0.522,0.359,0.88,0.953,1.073,1.839c0.16,0.624,0.195,1.328,0.253,2.022
			c0.036,0.455,0.071,0.91,0.121,1.276c0.035,0.206,0.062,0.333,0.103,0.426c0.112-0.047,0.325-0.166,0.666-0.421
			c0.499-0.378,0.863-1.197,1.043-2.325c0.151-0.949,0.11-1.79,0.11-1.79c-0.033-0.512,0.347-0.922,0.819-0.929
			c0.472-0.007,0.882,0.399,0.905,0.887c0.02,0.047,0.056,1-0.125,2.127c-0.247,1.654-0.812,2.807-1.686,3.483
			c-0.636,0.492-1.572,1.083-2.474,0.638c-0.763-0.367-0.965-1.277-1.008-1.563c-0.12-0.53-0.16-1.121-0.22-1.759
			c-0.018-0.601-0.079-1.239-0.178-1.722c-0.13-0.553-0.279-0.656-0.289-0.679c-0.075-0.051-0.293-0.069-0.763,0.131
			c-1.118,0.475-2.069,3.203-2.842,8.151C68.479,45.199,68.292,45.444,68.024,45.558z"/>
		<path fill="#FFFFFF" d="M80.144,41.132c-0.301,0.095-0.756,0.187-1.281,0.139c-0.563-0.088-1.072-0.328-1.488-0.756
			c-1.287-1.328-1.277-4.188,0.062-8.724c0.132-0.469,0.633-0.735,1.096-0.561c0.455,0.149,0.694,0.661,0.562,1.13
			c-1.563,5.275-0.777,6.628-0.508,6.917c0.301,0.305,0.802,0.199,1.01,0.133c1.481-0.47,1.946-2.62,2.064-4.339
			c0.046-0.496,0.471-0.844,0.949-0.782c0.471,0.038,0.817,0.489,0.793,0.977c-0.132,1.671-0.496,3.015-1.068,4.023
			C81.788,40.21,81.046,40.846,80.144,41.132z M78.875,28.932c-0.162,0.052-0.339,0.054-0.509,0.001
			c-0.285-0.097-0.485-0.327-0.57-0.594c-0.054-0.169-0.061-0.354-0.022-0.553l0.031-0.063l0.031-0.143
			c0.155-0.477,0.633-0.735,1.088-0.585c0.455,0.149,0.716,0.654,0.585,1.123l-0.046,0.175l-0.008,0.056
			C79.369,28.642,79.153,28.844,78.875,28.932z"/>
		<path fill="#FFFFFF" d="M86.501,40.089c-1.964,0.452-2.88-0.277-3.465-0.978c-0.316-0.397-0.271-0.956,0.08-1.271
			c0.351-0.316,0.906-0.287,1.222,0.11c0.24,0.284,0.55,0.657,1.757,0.379c0.971-0.224,1.157-0.71,1.2-0.851
			c0.235-0.603,0.064-1.556-0.446-2.796c-0.284-0.692-0.686-1.461-1.2-2.283c-0.14,0.476-0.308,0.933-0.519,1.425
			c-0.462,1.021-1.079,2.128-1.91,3.39c-0.257,0.398-0.807,0.499-1.195,0.223c-0.388-0.276-0.496-0.852-0.239-1.25
			c1.75-2.675,2.247-4.199,2.509-5.435c0.055-0.195,0.086-0.385,0.099-0.545c-0.023-0.099-0.069-0.193-0.092-0.292
			c-0.167-0.615-0.104-1.099,0.152-1.393c0.274-0.324,0.724-0.428,1.1-0.201c0.512,0.273,0.637,0.924,0.625,1.631
			c0.058,0.144,0.169,0.301,0.292,0.507c2.249,3.373,3.069,5.953,2.447,7.688C88.678,38.831,88.04,39.735,86.501,40.089z"/>
		<path fill="#FFFFFF" d="M90.895,38.608c-0.361,0.044-0.693-0.07-0.947-0.347c-0.25-0.251-0.607-0.772-0.731-2.398
			c-0.102-1.039-0.089-2.349,0.032-3.773c0.188-2.279,0.78-4.659,1.271-6.257c0.611-2.023,1.393-4.041,2.144-5.517
			c0.336-0.656,0.715-1.164,1.091-1.492c0.689-0.571,1.316-0.442,1.597-0.348c0.462,0.175,1.008,0.646,1.231,1.876
			c0.122,0.806,0.097,1.809-0.133,2.939c-0.304,1.729-0.855,3.232-1.585,4.475c-0.931,1.6-2.207,2.781-3.785,3.485
			c-0.056,0.34-0.089,0.678-0.121,1.015c-0.064,1.085-0.089,2.088-0.061,2.931c0.36-1.069,0.836-2.384,1.434-3.508
			c0.895-1.698,1.864-2.585,2.949-2.717c0.844-0.103,1.504,0.099,1.958,0.608c0.798,0.929,0.493,2.453,0.183,3.927
			c-0.104,0.551-0.233,1.105-0.253,1.543c-0.048,0.416,0.001,0.615,0.007,0.666c0.048-0.006,0.151,0.033,0.368,0.006
			c0.193-0.023,0.901-0.238,2.097-2.075c0.7-1.085,1.159-2.141,1.183-2.144c0.192-0.434,0.707-0.624,1.147-0.421
			c0.419,0.231,0.608,0.772,0.416,1.206c-0.042,0.056-0.54,1.194-1.324,2.392c-1.154,1.781-2.24,2.708-3.301,2.837
			c-0.796,0.097-1.432-0.108-1.858-0.595c-0.372-0.442-0.521-1.065-0.477-1.917c0.05-0.596,0.19-1.254,0.307-1.909
			c0.125-0.58,0.25-1.159,0.289-1.651c0.038-0.492-0.053-0.634-0.056-0.66c-0.027-0.022-0.154-0.058-0.467-0.02
			c-0.29,0.035-0.868,0.311-1.642,1.789c-0.619,1.152-1.083,2.567-1.485,3.693c-0.183,0.509-0.323,0.962-0.476,1.314
			C91.74,37.915,91.498,38.535,90.895,38.608z M94.787,20.289c-0.129,0.144-0.346,0.375-0.601,0.894
			c-0.97,1.887-2.052,4.865-2.703,7.764c1.641-1.199,2.743-3.205,3.282-6.014c0.173-0.996,0.189-1.664,0.144-2.043
			C94.875,20.612,94.827,20.413,94.787,20.289z"/>
		<path fill="#FFFFFF" d="M123.767,20.769c-1.461,0.251-3.227,0.092-5.282-0.093c-0.264-0.049-0.53-0.073-0.771-0.095
			c-0.896,2.091-1.776,4.005-2.563,5.697c-1.212,2.625-2.269,4.88-2.938,6.889c-0.722,2.056-0.963,3.644-0.765,4.965
			c0.077,0.492-0.257,0.948-0.728,1.033c-0.075,0.019-0.147,0.012-0.22,0.005c-0.363-0.033-0.7-0.344-0.761-0.758
			c-0.242-1.632,0.023-3.499,0.846-5.852c0.7-2.083,1.762-4.389,3.003-7.063c0.698-1.521,1.487-3.239,2.285-5.057
			c-1.891-0.12-3.914-0.124-6.019,0.223c-0.074,0.019-0.147,0.013-0.22,0.006c-0.362-0.033-0.7-0.344-0.761-0.758
			c-0.077-0.493,0.257-0.948,0.728-1.033c3.316-0.544,6.363-0.269,9.046-0.001c1.935,0.174,3.604,0.325,4.843,0.104
			c0.471-0.085,0.905,0.235,0.982,0.728C124.55,20.202,124.238,20.685,123.767,20.769z"/>
		<path fill="#FFFFFF" d="M119.157,38.838c-1.1-0.2-2.537-0.979-2.955-2.478c-0.227-0.792-0.143-1.656,0.25-2.593
			s1.124-1.969,2.18-3.018c1.329-1.336,2.602-2.088,3.817-2.254c1.363-0.166,2.132,0.491,2.32,0.681
			c0.312,0.315,0.507,0.739,0.568,1.216c0.089,0.456,0.022,0.961-0.165,1.445c-0.458,1.158-2.017,3.074-7.312,3.145
			c-0.079,0.296-0.081,0.58-0.003,0.827c0.197,0.683,0.979,1.135,1.624,1.253c1.313,0.239,3.834-0.311,5.393-2.77
			c0.273-0.416,0.816-0.55,1.21-0.271c0.397,0.253,0.493,0.814,0.244,1.234c-0.9,1.415-2.132,2.484-3.601,3.096
			C121.547,38.859,120.232,39.034,119.157,38.838z M123.131,30.3c-0.143-0.026-0.314-0.032-0.515-0.016
			c-0.558,0.08-1.485,0.428-2.787,1.744c-0.393,0.394-0.704,0.751-0.992,1.113c2.976-0.209,4.399-1.114,4.73-1.985
			c0.136-0.337,0.062-0.609,0-0.673C123.505,30.419,123.347,30.339,123.131,30.3z"/>
		<path fill="#FFFFFF" d="M124.641,40.068c-0.676-0.198-1.226-0.651-1.534-1.325s-0.334-1.45-0.005-2.229
			c0.496-1.26,1.675-2.346,2.568-3.064c1.046-0.807,2.271-1.534,3.297-1.923c1.736-0.657,3.562-0.413,4.427,0.609
			c0.562,0.669,0.63,1.563,0.164,2.461c-0.191,0.395-0.65,0.578-1.039,0.438c0.157,0.152,0.277,0.347,0.337,0.576
			c0.075,0.605-0.32,1.179-1.359,1.961c-0.136,0.119-0.356,0.267-0.668,0.467c-0.172,0.241-0.367,0.476-0.509,0.699
			c-0.26,0.454-0.316,0.649-0.315,0.729c0.017,0.031,0.109,0.059,0.25,0.1c1.165,0.342,2.643-0.471,4.525-2.49
			c0.338-0.378,0.894-0.374,1.226-0.038c0.354,0.343,0.337,0.921,0.006,1.274c-1.182,1.271-2.266,2.119-3.272,2.619
			c-1.045,0.542-2.061,0.642-2.993,0.368c-0.955-0.28-1.3-0.832-1.425-1.267c-0.027-0.167-0.047-0.358-0.044-0.543
			c-1.191,0.525-2.456,0.87-3.519,0.611L124.641,40.068z M131.579,33.062c-0.489-0.144-1.222-0.146-2.048,0.168
			c-1.622,0.611-4.25,2.412-4.841,3.909c-0.151,0.433-0.085,0.638-0.028,0.787c0.106,0.243,0.271,0.371,0.534,0.422
			c0.993,0.238,2.856-0.594,4.483-1.654c0.112-0.126,0.195-0.234,0.308-0.36l0.233-0.276c0.277-0.343,0.571-0.654,0.829-0.844
			c0.425-0.326,0.785-0.433,1.134-0.33l0.07,0.021c-0.307-0.249-0.418-0.732-0.227-1.127c0.163-0.297,0.092-0.397,0.028-0.442
			C131.96,33.227,131.812,33.131,131.579,33.062z"/>
		<path fill="#FFFFFF" d="M134.95,43.823c-0.494-0.203-0.966-0.589-1.29-1.079c-0.359-0.533-0.548-1.16-0.586-1.836
			c-0.079-1.215,0.369-3.589,4.127-5.899c0.912-0.561,1.761-0.901,2.525-0.972c0.765-0.072,1.455,0.102,1.962,0.529
			c0.379,0.293,0.677,0.718,0.814,1.214c0.115,0.487,0.099,0.976-0.017,1.451c-0.158,0.513-0.441,0.947-0.84,1.278
			c-0.408,0.355-0.945,0.575-1.523,0.641c-0.469,0.055-0.873-0.303-0.934-0.795c-0.038-0.483,0.331-0.937,0.801-0.992
			c0.578-0.065,0.768-0.4,0.822-0.598c0.074-0.245,0.033-0.591-0.208-0.772c-0.356-0.284-1.224-0.282-2.561,0.545
			c-2.121,1.331-3.33,2.87-3.245,4.198c0.031,0.755,0.455,1.259,0.837,1.416c1.821,0.747,4.041,0.007,6.044-2.06
			c0.354-0.35,0.903-0.345,1.23,0.01c0.337,0.331,0.314,0.899-0.017,1.258c-1.258,1.272-2.582,2.132-3.941,2.565
			C137.561,44.371,136.186,44.33,134.95,43.823z"/>
		<path fill="#FFFFFF" d="M140.092,45.188c-0.319-0.174-0.523-0.46-0.568-0.833c-0.058-0.351-0.045-0.982,0.8-2.376
			c0.522-0.904,1.294-1.962,2.221-3.051c1.479-1.745,3.346-3.336,4.675-4.35c1.674-1.291,3.484-2.477,4.954-3.241
			c0.655-0.338,1.259-0.531,1.755-0.579c0.894-0.063,1.328,0.406,1.502,0.646c0.273,0.411,0.443,1.113-0.091,2.242
			c-0.369,0.727-0.973,1.528-1.817,2.314c-1.254,1.23-2.576,2.131-3.894,2.718c-1.688,0.76-3.413,0.978-5.106,0.633
			c-0.244,0.244-0.467,0.5-0.689,0.755c-0.684,0.845-1.287,1.646-1.754,2.349c0.915-0.661,2.067-1.453,3.207-2.019
			c1.716-0.861,3.021-1.019,3.979-0.495c0.746,0.407,1.166,0.956,1.238,1.633c0.108,1.22-1.025,2.283-2.136,3.301
			c-0.405,0.388-0.832,0.764-1.104,1.108c-0.28,0.311-0.357,0.501-0.382,0.546c0.043,0.023,0.104,0.114,0.296,0.219
			c0.17,0.093,0.871,0.331,2.913-0.468c1.2-0.476,2.188-1.067,2.21-1.056c0.408-0.241,0.938-0.097,1.179,0.325
			c0.206,0.432,0.045,0.982-0.364,1.223c-0.066,0.021-1.134,0.657-2.469,1.175c-1.975,0.777-3.397,0.899-4.336,0.387
			c-0.703-0.384-1.102-0.921-1.165-1.564c-0.045-0.576,0.196-1.169,0.727-1.837c0.388-0.456,0.885-0.909,1.36-1.375
			c0.438-0.398,0.878-0.796,1.195-1.174s0.326-0.547,0.339-0.569c-0.01-0.034-0.092-0.137-0.369-0.288
			c-0.256-0.14-0.886-0.252-2.377,0.5c-1.173,0.578-2.374,1.458-3.355,2.141c-0.445,0.308-0.823,0.595-1.152,0.792
			C141.183,45.117,140.625,45.479,140.092,45.188z M153.917,32.551c-0.188,0.042-0.499,0.104-1.009,0.377
			c-1.887,0.971-4.499,2.764-6.716,4.744c2.032-0.021,4.096-1.012,6.169-2.983c0.72-0.709,1.123-1.244,1.306-1.579
			C153.802,32.865,153.878,32.674,153.917,32.551z"/>
		<path fill="#FFFFFF" d="M151.219,51.978c-0.913-0.644-1.891-1.955-1.64-3.491c0.127-0.813,0.566-1.562,1.316-2.248
			c0.751-0.685,1.848-1.313,3.246-1.822c1.768-0.653,3.238-0.8,4.411-0.44c1.307,0.423,1.729,1.342,1.818,1.593
			c0.151,0.418,0.15,0.884,0.005,1.342c-0.11,0.452-0.384,0.882-0.756,1.242c-0.902,0.858-3.122,1.94-7.957-0.222
			c-0.195,0.236-0.317,0.493-0.35,0.75c-0.108,0.702,0.41,1.441,0.946,1.819c1.092,0.77,3.609,1.33,6.057-0.245
			c0.423-0.262,0.972-0.156,1.212,0.263c0.255,0.397,0.105,0.946-0.298,1.223c-1.41,0.905-2.978,1.357-4.567,1.294
			C153.379,53.003,152.113,52.608,151.219,51.978z M158.415,45.904c-0.119-0.084-0.273-0.161-0.461-0.231
			c-0.54-0.162-1.528-0.236-3.262,0.41c-0.521,0.193-0.955,0.385-1.368,0.592c2.788,1.062,4.46,0.84,5.127,0.189
			c0.265-0.249,0.312-0.527,0.282-0.611S158.592,46.03,158.415,45.904z"/>
		<path fill="#FFFFFF" d="M158.486,57.276c-0.698-0.604-0.782-1.249-0.717-1.697c0.063-0.518,0.356-1.005,0.88-1.461
			c0.472-0.433,1.155-0.852,2.086-1.258c0.947-0.426,1.563-0.767,1.809-1.161c0.13-0.224,0.27-0.608,0.01-1.607
			c-1.496,0.725-3.938,1.876-4.059,1.94c-0.466,0.204-0.968,0.004-1.165-0.436c-0.18-0.424,0.04-0.975,0.471-1.174
			c0.052-0.023,3.08-1.441,4.473-2.121c0.027-0.144,0.072-0.307,0.119-0.435c0.188-0.477,0.558-0.83,1.007-1.014
			c0.69-0.278,1.388-0.044,1.627,0.533c0.099,0.22,0.25,0.788-0.37,1.43c-0.134,0.154-0.304,0.276-0.49,0.417
			c0.44,1.458,0.385,2.488-0.119,3.33c-0.555,0.9-1.585,1.422-2.652,1.912c-1.62,0.72-1.843,1.2-1.874,1.273
			c0.002,0.035,0.04,0.102,0.222,0.226l0.037,0.032c1.005,0.769,3.329,0.794,5.39,0.086c0.467-0.168,0.954,0.085,1.1,0.548
			c0.146,0.462-0.129,0.965-0.579,1.114c-1.211,0.433-2.539,0.63-3.737,0.604c-1.373-0.01-2.498-0.344-3.282-0.922l-0.019-0.016
			L158.486,57.276z"/>
		<path fill="#FFFFFF" d="M163.228,62.512c-1.391-1.46-1.23-2.62-0.925-3.48c0.181-0.474,0.686-0.72,1.136-0.578
			c0.451,0.141,0.709,0.633,0.527,1.107c-0.122,0.352-0.284,0.808,0.57,1.705c0.687,0.722,1.201,0.634,1.344,0.6
			c0.638-0.105,1.372-0.736,2.18-1.807c0.451-0.597,0.908-1.334,1.354-2.195c-0.481,0.123-0.961,0.209-1.491,0.279
			c-1.114,0.122-2.383,0.155-3.893,0.083c-0.475-0.018-0.841-0.44-0.801-0.915c0.04-0.475,0.48-0.86,0.955-0.842
			c3.195,0.145,4.76-0.205,5.958-0.607c0.196-0.052,0.375-0.122,0.52-0.192c0.074-0.07,0.131-0.158,0.204-0.228
			c0.444-0.457,0.894-0.649,1.277-0.578c0.419,0.071,0.737,0.405,0.733,0.844c0.025,0.58-0.471,1.019-1.086,1.369
			c-0.094,0.123-0.172,0.298-0.288,0.509c-1.758,3.652-3.561,5.671-5.372,6.02C165.42,63.745,164.317,63.656,163.228,62.512z"/>
	</g>
	<circle fill="none" stroke="#FFFFFF" stroke-width="1.2725" stroke-miterlimit="10" cx="105.237" cy="105.065" r="100.739"/>
	<g>
		<path fill="#FFFFFF" d="M50.637,173.916c-0.28-0.237-0.651-0.63-0.929-1.176c-0.261-0.61-0.339-1.26-0.174-1.935
			c0.513-2.088,3.339-3.845,8.639-5.328c0.543-0.159,1.116,0.171,1.23,0.733c0.134,0.541-0.223,1.093-0.767,1.253
			c-6.167,1.718-7.015,3.327-7.133,3.771c-0.115,0.484,0.299,0.914,0.493,1.078c1.379,1.17,3.786,0.3,5.553-0.646
			c0.518-0.26,1.123-0.057,1.358,0.453c0.253,0.487,0.023,1.107-0.472,1.386c-1.729,0.901-3.279,1.372-4.627,1.433
			C52.562,174.967,51.478,174.629,50.637,173.916z M61.881,165.129c-0.151-0.128-0.263-0.302-0.316-0.501
			c-0.082-0.341,0.021-0.681,0.232-0.929c0.134-0.158,0.312-0.279,0.532-0.364l0.082-0.009l0.161-0.058
			c0.565-0.143,1.116,0.17,1.25,0.71c0.134,0.541-0.202,1.11-0.745,1.271l-0.201,0.062l-0.06,0.027
			C62.472,165.437,62.139,165.348,61.881,165.129z"/>
		<path fill="#FFFFFF" d="M54.699,177.008c-0.119-0.076-0.222-0.178-0.292-0.329c-0.253-0.443-0.155-1.014,0.259-1.346
			c0.056-0.034,4.074-3.261,5.536-5.173c0.352-0.442,0.996-0.557,1.439-0.202c0.42,0.34,0.505,0.992,0.138,1.46
			c-0.352,0.443-0.814,0.955-1.317,1.478c0.859-0.293,1.631-0.502,2.315-0.626c1.63-0.291,2.822-0.159,3.726,0.421
			c0.999,0.641,1.521,1.397,1.525,2.279c-0.002,0.737-0.339,1.471-1.065,2.236c-0.495,0.562-1.148,1.058-1.778,1.567
			c-0.415,0.332-0.829,0.664-1.148,0.952c-0.175,0.169-0.279,0.278-0.343,0.378c0.119,0.076,0.373,0.204,0.841,0.363
			c0.691,0.232,1.717,0.047,2.919-0.519c1.011-0.478,1.792-1.066,1.792-1.066c0.47-0.367,1.114-0.271,1.43,0.179
			c0.316,0.448,0.195,1.109-0.26,1.451c-0.032,0.05-0.925,0.708-2.127,1.273c-1.752,0.846-3.231,1.059-4.454,0.661
			c-0.889-0.289-2.072-0.802-2.234-1.961c-0.147-0.974,0.595-1.765,0.842-1.992c0.431-0.463,0.973-0.889,1.547-1.364
			c0.566-0.411,1.14-0.887,1.539-1.3c0.447-0.487,0.448-0.697,0.464-0.723c0-0.104-0.126-0.327-0.625-0.647
			c-1.189-0.763-4.436,0.109-9.699,2.607C55.342,177.209,54.985,177.191,54.699,177.008z"/>
		<path fill="#FFFFFF" d="M96.96,187.241c-1.087,3.041-1.456,5.112-1.095,6.305c0.175,0.551-0.122,1.154-0.646,1.318
			c-0.184,0.054-0.362,0.077-0.528,0.043c-0.333-0.068-0.623-0.34-0.723-0.692c-0.828-2.71,0.533-7.358,5.127-16.936
			c-1.168,1.332-2.473,2.908-3.887,4.733c-2.84,3.71-5.178,7.22-5.937,8.666c-0.194,0.384-0.614,0.6-1.007,0.549
			c-0.421-0.057-0.761-0.368-0.85-0.779c-0.329-1.488,0.353-4.1,1.489-8.22c0.616-2.292,1.271-4.637,1.633-6.679
			c0.089-0.435,0.145-0.847,0.189-1.2l-0.566,0.79c-0.165,0.238-0.335,0.506-0.533,0.768c-0.5,0.744-1.248,1.859-2.088,3.138
			c-1.601,2.453-3.616,5.516-5.468,8.067c-1.042,1.418-1.895,2.482-2.612,3.303c-0.97,1.07-1.688,1.617-2.33,1.788
			c-0.123,0.035-0.294,0.03-0.405,0.008c-0.388-0.08-0.7-0.386-0.788-0.798c-0.12-0.538,0.227-1.102,0.779-1.261
			c0.027,0.006,0.407-0.158,1.384-1.257c0.649-0.773,1.497-1.809,2.459-3.122c1.785-2.506,3.754-5.487,5.343-7.881
			c0.846-1.308,1.595-2.424,2.127-3.191c0.17-0.267,0.341-0.534,0.533-0.767c0.533-0.768,0.993-1.459,1.328-1.965l0.349-0.714
			c-0.132-0.058-0.354-0.104-0.714-0.177c-0.648-0.073-1.495,0.115-2.279,0.559c-0.811,0.438-1.453,1.032-1.756,1.665
			c-0.343,0.686-0.241,1.311,0.322,1.94c0.371,0.439,0.351,1.101-0.049,1.502c-0.428,0.396-1.061,0.387-1.432-0.053
			c-1.153-1.265-1.375-2.853-0.61-4.328c0.504-1.045,1.438-1.941,2.641-2.601c1.17-0.637,2.406-0.896,3.47-0.738
			c0.283,0.028,0.56,0.085,0.836,0.142l0.083,0.018c0.658,0.165,1.208,0.58,1.565,1.229c0.612,1.093,0.687,2.832,0.193,5.512
			c-0.375,2.101-1.042,4.503-1.669,6.853c-0.292,0.998-0.55,1.974-0.79,2.861c1.02-1.453,2.238-3.168,3.613-4.941
			c2.398-3.104,5.771-7.158,8.264-8.762c0.37-0.256,0.88-0.212,1.22,0.1c0.312,0.307,0.404,0.839,0.177,1.246
			C100.151,179.582,98.111,184.031,96.96,187.241z"/>
		<path fill="#FFFFFF" d="M104.297,194.908c-0.818,0.033-1.594-0.262-2.185-0.89s-0.907-1.475-0.834-2.455
			c0.078-1.574,0.974-3.211,1.692-4.336c0.854-1.279,1.934-2.538,2.919-3.349c1.67-1.372,3.773-1.783,5.106-0.978
			c0.87,0.527,1.276,1.489,1.097,2.652c-0.064,0.506-0.502,0.88-0.983,0.869c0.231,0.109,0.436,0.279,0.586,0.51
			c0.309,0.64,0.086,1.419-0.769,2.669c-0.105,0.183-0.294,0.427-0.563,0.764c-0.1,0.33-0.228,0.661-0.301,0.961
			c-0.117,0.597-0.107,0.834-0.075,0.922c0.029,0.028,0.142,0.023,0.312,0.017c1.411-0.058,2.738-1.504,4.062-4.433
			c0.232-0.542,0.847-0.745,1.337-0.498c0.52,0.245,0.715,0.89,0.48,1.402c-0.83,1.842-1.709,3.182-2.634,4.107
			c-0.949,0.987-2.032,1.476-3.162,1.521c-1.157,0.047-1.742-0.434-2.042-0.865c-0.092-0.175-0.185-0.378-0.25-0.583
			c-1.118,1.023-2.384,1.875-3.652,1.985L104.297,194.908z M109.339,184.598c-0.593,0.023-1.402,0.294-2.195,0.948
			c-1.561,1.278-3.788,4.243-3.882,6.114c-0.007,0.533,0.143,0.734,0.261,0.878c0.208,0.229,0.437,0.309,0.746,0.267
			c1.183-0.107,2.928-1.72,4.327-3.495c0.077-0.181,0.128-0.331,0.205-0.512l0.154-0.392c0.179-0.481,0.387-0.935,0.601-1.239
			c0.347-0.518,0.704-0.77,1.127-0.787l0.085-0.003c-0.431-0.16-0.733-0.652-0.669-1.158c0.069-0.389-0.047-0.473-0.133-0.499
			C109.822,184.637,109.622,184.586,109.339,184.598z M109.37,179.737c-0.031-0.799,1.727-3.479,2.771-3.521
			c0.479-0.02,0.776,0.324,0.888,1.001c-1.543,1.692-2.516,2.828-2.942,3.468C109.655,180.496,109.38,180.002,109.37,179.737z"/>
		<path fill="#FFFFFF" d="M120.096,192.776c-0.556,0.105-1.894,0.33-2.952-0.704c-1.064-1.063-1.418-3.075-1.077-6.123
			c0.252-2.157,0.743-4.872,1.395-7.498c0.652-2.775,1.426-5.213,2.127-6.822c0.333-0.817,0.733-1.436,1.145-1.846
			c0.761-0.687,1.494-0.615,1.832-0.499c0.544,0.138,1.243,0.638,1.569,2.053c0.204,0.925,0.259,2.12,0.074,3.421
			c-0.084,0.92-0.464,3.312-1.587,5.876c-1.129,2.535-2.58,4.438-4.385,5.686c-0.05,0.04-0.128,0.085-0.183,0.096
			c-0.325,2.984,0.218,3.876,0.468,4.13c0.288,0.307,0.737,0.251,1.182,0.167l0.028-0.006c0.443-0.084,1.216-0.412,1.854-1.136
			c0.928-1.021,1.084-2.165,1.401-3.371c0.123-0.565,0.695-0.885,1.217-0.713c0.549,0.166,0.859,0.74,0.709,1.312
			c-0.351,1.332-1.653,5.377-4.79,5.974L120.096,192.776z M122.052,171.43c-0.145,0.148-0.372,0.463-0.634,1.055
			c-1.079,2.496-2.248,6.938-2.935,10.895c2.223-2.381,3.408-6.133,3.743-8.908c0.151-1.174,0.091-1.946,0.008-2.382
			C122.174,171.769,122.102,171.541,122.052,171.43z"/>
		<path fill="#FFFFFF" d="M126.937,192.036c-0.779,0.25-1.605,0.174-2.343-0.273s-1.269-1.179-1.459-2.144
			c-0.346-1.536,0.08-3.352,0.472-4.628c0.481-1.46,1.187-2.961,1.919-4.005c1.243-1.767,3.161-2.725,4.661-2.305
			c0.979,0.276,1.627,1.095,1.765,2.263c0.073,0.505-0.248,0.981-0.715,1.1c0.252,0.044,0.494,0.152,0.701,0.335
			c0.468,0.533,0.461,1.344-0.028,2.776c-0.054,0.203-0.17,0.489-0.339,0.886c-0.009,0.345-0.043,0.697-0.033,1.005
			c0.046,0.607,0.118,0.833,0.173,0.908c0.036,0.021,0.144-0.015,0.305-0.066c1.345-0.432,2.238-2.18,2.732-5.354
			c0.079-0.585,0.616-0.944,1.155-0.838c0.565,0.099,0.926,0.667,0.838,1.224c-0.309,1.995-0.799,3.521-1.441,4.66
			c-0.652,1.204-1.565,1.963-2.642,2.309c-1.104,0.354-1.795,0.048-2.199-0.289c-0.136-0.143-0.279-0.314-0.396-0.494
			c-0.805,1.284-1.798,2.442-2.99,2.888L126.937,192.036z M129.043,180.758c-0.564,0.182-1.272,0.657-1.862,1.5
			c-1.162,1.647-2.518,5.098-2.109,6.926c0.137,0.516,0.334,0.67,0.487,0.776c0.261,0.165,0.503,0.18,0.79,0.057
			c1.111-0.419,2.362-2.438,3.236-4.521c0.026-0.195,0.035-0.354,0.062-0.549l0.044-0.418c0.044-0.512,0.123-1.003,0.248-1.354
			c0.195-0.591,0.473-0.929,0.876-1.059l0.081-0.025c-0.458-0.04-0.881-0.433-0.954-0.938c-0.036-0.393-0.171-0.442-0.261-0.444
			C129.519,180.667,129.313,180.672,129.043,180.758z"/>
		<path fill="#FFFFFF" d="M143.435,193.283c-0.499,0.265-1.046,0.32-1.64,0.167c-0.724-0.22-1.257-0.741-1.532-1.5
			c-0.303-0.812-0.262-1.939,0.118-3.214c0.332-1.183,0.98-2.433,1.785-3.631l0.893-1.212c-0.006-0.131-0.051-0.275-0.056-0.406
			c-0.546,1.263-1.289,2.395-2.26,2.978c-0.771,0.477-1.637,0.534-2.48,0.211c-0.83-0.297-1.457-0.937-1.841-1.839
			c-0.61-1.453-0.512-3.315-0.326-4.654c0.215-1.523,0.645-3.126,1.183-4.283c0.911-1.96,2.631-3.242,4.157-3.08
			c1.037,0.086,1.795,0.79,2.162,1.902c0.15,0.524-0.083,1.05-0.56,1.236c0.216-0.015,0.449,0.063,0.646,0.193
			c0.63,0.402,0.821,1.307,0.589,2.737l-0.047,0.395c0.173,0.746,0.345,1.493,0.479,2.227c0.713-1.25,1.139-2.616,1.121-4.82
			c0.014-0.577,0.44-1.038,1.029-1.016c0.549,0.01,1.004,0.506,1.016,1.069c0.018,1.902-0.262,3.426-0.854,4.78
			c-0.488,1.13-1.15,2.053-1.85,3.027c0.101,0.852,0.148,1.665,0.157,2.465c0.031,1.324-0.049,2.439-0.237,3.411
			c-0.222,1.09-0.582,1.919-1.083,2.42C143.846,193.031,143.635,193.176,143.435,193.283z M140.676,175.066
			c-0.499,0.266-1.137,0.872-1.544,1.793c-0.854,1.828-1.579,5.466-0.854,7.192c0.2,0.498,0.446,0.602,0.616,0.679
			c0.285,0.116,0.527,0.089,0.788-0.083c1.07-0.636,2.001-3.041,2.464-5.365l-0.134-0.433c-0.334-1.231-0.198-2.242,0.409-2.665
			c0.061-0.065,0.161-0.119,0.235-0.158c-0.446,0.002-0.854-0.284-1.002-0.742c-0.105-0.38-0.247-0.405-0.336-0.392
			C141.154,174.879,140.926,174.933,140.676,175.066z M143.302,187.184c-1.117,1.935-1.369,3.51-1.152,4.099
			c0.03,0.118,0.069,0.131,0.108,0.144c0.116,0.039,0.18,0.039,0.277-0.08C142.926,190.937,143.331,189.65,143.302,187.184z"/>
		<path fill="#FFFFFF" d="M153.648,179.484c-0.646,0.505-1.447,0.719-2.294,0.554c-0.848-0.165-1.599-0.667-2.112-1.506
			c-0.855-1.322-1.084-3.174-1.158-4.507c-0.055-1.536,0.088-3.188,0.415-4.421c0.555-2.088,2.023-3.65,3.577-3.775
			c1.015-0.079,1.906,0.464,2.439,1.513c0.244,0.448,0.106,1.007-0.29,1.279c0.251-0.046,0.517-0.028,0.773,0.071
			c0.624,0.339,0.898,1.103,0.935,2.615c0.021,0.209,0.011,0.518-0.012,0.948c0.112,0.326,0.201,0.67,0.317,0.955
			c0.253,0.554,0.399,0.74,0.477,0.793c0.04,0.006,0.129-0.064,0.263-0.169c1.113-0.87,1.347-2.819,0.712-5.969
			c-0.128-0.576,0.252-1.1,0.795-1.186c0.564-0.104,1.1,0.305,1.21,0.858c0.4,1.979,0.469,3.579,0.26,4.871
			c-0.195,1.355-0.79,2.384-1.681,3.08c-0.913,0.714-1.668,0.666-2.165,0.49c-0.176-0.088-0.37-0.198-0.543-0.327
			c-0.311,1.483-0.842,2.914-1.807,3.744L153.648,179.484z M151.721,168.173c-0.468,0.365-0.967,1.057-1.229,2.052
			c-0.521,1.948-0.599,5.654,0.418,7.228c0.307,0.438,0.545,0.514,0.726,0.561c0.302,0.064,0.535-0.005,0.762-0.22
			c0.898-0.777,1.374-3.104,1.473-5.362c-0.042-0.191-0.089-0.343-0.132-0.535l-0.104-0.407c-0.136-0.495-0.231-0.984-0.236-1.356
			c-0.021-0.623,0.123-1.036,0.457-1.297l0.066-0.053c-0.443,0.122-0.977-0.101-1.22-0.549c-0.171-0.355-0.314-0.356-0.399-0.327
			C152.136,167.924,151.944,167.999,151.721,168.173z"/>
	</g>
</g>
<circle fill="#FFFFFF" cx="112.161" cy="90.259" r="4.377"/>
</svg>
